<mxfile host="www.draw.io" modified="2023-05-06T12:27:29.833Z" agent="Mozilla/5.0 (X11; CrOS x86_64 14541.0.0) AppleWebKit/537.36 (KHTML, like Gecko) Chrome/112.0.0.0 Safari/537.36" etag="MDrNOe5y4LAVzcSRB1Hh" version="21.2.9" type="device">
  <diagram name="Seite-1" id="6b0QrBXpbbX-kZIAKWp9">
    <mxGraphModel dx="1957" dy="585" grid="1" gridSize="10" guides="1" tooltips="1" connect="1" arrows="1" fold="1" page="1" pageScale="1" pageWidth="827" pageHeight="1169" math="0" shadow="0">
      <root>
        <mxCell id="0" />
        <mxCell id="1" parent="0" />
        <mxCell id="K3Xupo0fyRdiqklqDOSj-4" value="Kunde" style="swimlane;whiteSpace=wrap;html=1;" parent="1" vertex="1">
          <mxGeometry x="218" y="475" width="196" height="100" as="geometry" />
        </mxCell>
        <mxCell id="K3Xupo0fyRdiqklqDOSj-5" value="&lt;br&gt;Kunden ID - PK&lt;br&gt;Name&lt;br&gt;&lt;div style=&quot;&quot;&gt;&lt;span style=&quot;background-color: initial;&quot;&gt;Telefonnummer&lt;/span&gt;&lt;/div&gt;&lt;div style=&quot;&quot;&gt;Adresse - FK&lt;/div&gt;" style="text;html=1;align=left;verticalAlign=middle;resizable=0;points=[];autosize=1;strokeColor=none;fillColor=none;" parent="K3Xupo0fyRdiqklqDOSj-4" vertex="1">
          <mxGeometry y="10" width="110" height="90" as="geometry" />
        </mxCell>
        <mxCell id="K3Xupo0fyRdiqklqDOSj-6" value="Mitarbeiter" style="swimlane;whiteSpace=wrap;html=1;" parent="1" vertex="1">
          <mxGeometry x="540" y="460" width="196" height="90" as="geometry" />
        </mxCell>
        <mxCell id="K3Xupo0fyRdiqklqDOSj-7" value="MB ID - PK&lt;br&gt;Name&lt;br&gt;Adresse FK&lt;br&gt;Rolle&amp;nbsp;" style="text;html=1;align=left;verticalAlign=middle;resizable=0;points=[];autosize=1;strokeColor=none;fillColor=none;" parent="K3Xupo0fyRdiqklqDOSj-6" vertex="1">
          <mxGeometry y="20" width="90" height="70" as="geometry" />
        </mxCell>
        <mxCell id="K3Xupo0fyRdiqklqDOSj-8" value="Besuche" style="swimlane;whiteSpace=wrap;html=1;" parent="1" vertex="1">
          <mxGeometry x="374" y="650" width="196" height="100" as="geometry" />
        </mxCell>
        <mxCell id="K3Xupo0fyRdiqklqDOSj-9" value="ID - PK&lt;br&gt;Kunden Id - FK&lt;br&gt;Mitarbeiter Id - FK&lt;br&gt;Datum&lt;br&gt;Uhrzeit" style="text;html=1;align=left;verticalAlign=middle;resizable=0;points=[];autosize=1;strokeColor=none;fillColor=none;" parent="K3Xupo0fyRdiqklqDOSj-8" vertex="1">
          <mxGeometry y="20" width="120" height="90" as="geometry" />
        </mxCell>
        <mxCell id="K3Xupo0fyRdiqklqDOSj-10" value="Adresse" style="swimlane;whiteSpace=wrap;html=1;" parent="1" vertex="1">
          <mxGeometry x="400" y="260" width="170" height="110" as="geometry" />
        </mxCell>
        <mxCell id="K3Xupo0fyRdiqklqDOSj-11" value="Adressen ID - PK&lt;br&gt;StraÃŸe&lt;br&gt;Hausnummer&lt;br&gt;Postleitzahl&lt;br&gt;Ort" style="text;html=1;align=left;verticalAlign=middle;resizable=0;points=[];autosize=1;strokeColor=none;fillColor=none;" parent="K3Xupo0fyRdiqklqDOSj-10" vertex="1">
          <mxGeometry y="20" width="120" height="90" as="geometry" />
        </mxCell>
        <mxCell id="K3Xupo0fyRdiqklqDOSj-19" value="" style="endArrow=classic;html=1;rounded=0;exitX=0.521;exitY=-0.008;exitDx=0;exitDy=0;entryX=-0.023;entryY=0.441;entryDx=0;entryDy=0;entryPerimeter=0;exitPerimeter=0;" parent="1" source="K3Xupo0fyRdiqklqDOSj-4" target="K3Xupo0fyRdiqklqDOSj-11" edge="1">
          <mxGeometry relative="1" as="geometry">
            <mxPoint x="350" y="440" as="sourcePoint" />
            <mxPoint x="320" y="320" as="targetPoint" />
            <Array as="points">
              <mxPoint x="320" y="320" />
            </Array>
          </mxGeometry>
        </mxCell>
        <mxCell id="K3Xupo0fyRdiqklqDOSj-20" value="wohnt" style="edgeLabel;resizable=0;html=1;align=center;verticalAlign=middle;" parent="K3Xupo0fyRdiqklqDOSj-19" connectable="0" vertex="1">
          <mxGeometry relative="1" as="geometry" />
        </mxCell>
        <mxCell id="K3Xupo0fyRdiqklqDOSj-21" value="1" style="edgeLabel;resizable=0;html=1;align=left;verticalAlign=bottom;" parent="K3Xupo0fyRdiqklqDOSj-19" connectable="0" vertex="1">
          <mxGeometry x="-1" relative="1" as="geometry" />
        </mxCell>
        <mxCell id="K3Xupo0fyRdiqklqDOSj-22" value="1" style="edgeLabel;resizable=0;html=1;align=right;verticalAlign=bottom;" parent="K3Xupo0fyRdiqklqDOSj-19" connectable="0" vertex="1">
          <mxGeometry x="1" relative="1" as="geometry" />
        </mxCell>
        <mxCell id="K3Xupo0fyRdiqklqDOSj-23" value="" style="endArrow=classic;html=1;rounded=0;exitX=0.5;exitY=0;exitDx=0;exitDy=0;" parent="1" source="K3Xupo0fyRdiqklqDOSj-6" edge="1">
          <mxGeometry relative="1" as="geometry">
            <mxPoint x="330" y="484" as="sourcePoint" />
            <mxPoint x="570" y="320" as="targetPoint" />
            <Array as="points">
              <mxPoint x="640" y="320" />
            </Array>
          </mxGeometry>
        </mxCell>
        <mxCell id="K3Xupo0fyRdiqklqDOSj-24" value="wohnt" style="edgeLabel;resizable=0;html=1;align=center;verticalAlign=middle;" parent="K3Xupo0fyRdiqklqDOSj-23" connectable="0" vertex="1">
          <mxGeometry relative="1" as="geometry" />
        </mxCell>
        <mxCell id="K3Xupo0fyRdiqklqDOSj-25" value="1" style="edgeLabel;resizable=0;html=1;align=left;verticalAlign=bottom;" parent="K3Xupo0fyRdiqklqDOSj-23" connectable="0" vertex="1">
          <mxGeometry x="-1" relative="1" as="geometry" />
        </mxCell>
        <mxCell id="K3Xupo0fyRdiqklqDOSj-26" value="1" style="edgeLabel;resizable=0;html=1;align=right;verticalAlign=bottom;" parent="K3Xupo0fyRdiqklqDOSj-23" connectable="0" vertex="1">
          <mxGeometry x="1" relative="1" as="geometry" />
        </mxCell>
        <mxCell id="K3Xupo0fyRdiqklqDOSj-27" value="Krankschreibung Mitarbeiter" style="swimlane;whiteSpace=wrap;html=1;" parent="1" vertex="1">
          <mxGeometry x="850" y="465" width="200" height="85" as="geometry" />
        </mxCell>
        <mxCell id="K3Xupo0fyRdiqklqDOSj-28" value="ID PK&lt;br&gt;Mitarbeiter ID - FK&lt;br&gt;Start Datum&lt;br&gt;End Datum" style="text;html=1;strokeColor=none;fillColor=none;align=left;verticalAlign=middle;whiteSpace=wrap;rounded=0;" parent="K3Xupo0fyRdiqklqDOSj-27" vertex="1">
          <mxGeometry y="30" width="110" height="40" as="geometry" />
        </mxCell>
        <mxCell id="K3Xupo0fyRdiqklqDOSj-29" value="Krankschreibung Kunde" style="swimlane;whiteSpace=wrap;html=1;" parent="1" vertex="1">
          <mxGeometry x="-90" y="475" width="200" height="85" as="geometry" />
        </mxCell>
        <mxCell id="K3Xupo0fyRdiqklqDOSj-30" value="ID - PK&lt;br&gt;Kunden ID - FK&lt;br&gt;Start Datum&lt;br&gt;End Datum" style="text;html=1;strokeColor=none;fillColor=none;align=left;verticalAlign=middle;whiteSpace=wrap;rounded=0;" parent="K3Xupo0fyRdiqklqDOSj-29" vertex="1">
          <mxGeometry y="30" width="110" height="40" as="geometry" />
        </mxCell>
        <mxCell id="K3Xupo0fyRdiqklqDOSj-31" value="" style="endArrow=classic;html=1;rounded=0;exitX=0.007;exitY=0.255;exitDx=0;exitDy=0;exitPerimeter=0;entryX=1;entryY=0.5;entryDx=0;entryDy=0;" parent="1" source="K3Xupo0fyRdiqklqDOSj-5" target="K3Xupo0fyRdiqklqDOSj-29" edge="1">
          <mxGeometry relative="1" as="geometry">
            <mxPoint x="330" y="484" as="sourcePoint" />
            <mxPoint x="140" y="520" as="targetPoint" />
            <Array as="points">
              <mxPoint x="190" y="520" />
            </Array>
          </mxGeometry>
        </mxCell>
        <mxCell id="K3Xupo0fyRdiqklqDOSj-32" value="hat" style="edgeLabel;resizable=0;html=1;align=center;verticalAlign=middle;" parent="K3Xupo0fyRdiqklqDOSj-31" connectable="0" vertex="1">
          <mxGeometry relative="1" as="geometry" />
        </mxCell>
        <mxCell id="K3Xupo0fyRdiqklqDOSj-33" value="1" style="edgeLabel;resizable=0;html=1;align=left;verticalAlign=bottom;" parent="K3Xupo0fyRdiqklqDOSj-31" connectable="0" vertex="1">
          <mxGeometry x="-1" relative="1" as="geometry" />
        </mxCell>
        <mxCell id="K3Xupo0fyRdiqklqDOSj-34" value="n" style="edgeLabel;resizable=0;html=1;align=right;verticalAlign=bottom;" parent="K3Xupo0fyRdiqklqDOSj-31" connectable="0" vertex="1">
          <mxGeometry x="1" relative="1" as="geometry" />
        </mxCell>
        <mxCell id="K3Xupo0fyRdiqklqDOSj-35" value="" style="endArrow=classic;html=1;rounded=0;exitX=1;exitY=0.5;exitDx=0;exitDy=0;entryX=0;entryY=0.25;entryDx=0;entryDy=0;" parent="1" source="K3Xupo0fyRdiqklqDOSj-6" target="K3Xupo0fyRdiqklqDOSj-28" edge="1">
          <mxGeometry relative="1" as="geometry">
            <mxPoint x="340" y="494" as="sourcePoint" />
            <mxPoint x="418" y="340" as="targetPoint" />
            <Array as="points" />
          </mxGeometry>
        </mxCell>
        <mxCell id="K3Xupo0fyRdiqklqDOSj-36" value="hat" style="edgeLabel;resizable=0;html=1;align=center;verticalAlign=middle;" parent="K3Xupo0fyRdiqklqDOSj-35" connectable="0" vertex="1">
          <mxGeometry relative="1" as="geometry" />
        </mxCell>
        <mxCell id="K3Xupo0fyRdiqklqDOSj-37" value="1" style="edgeLabel;resizable=0;html=1;align=left;verticalAlign=bottom;" parent="K3Xupo0fyRdiqklqDOSj-35" connectable="0" vertex="1">
          <mxGeometry x="-1" relative="1" as="geometry" />
        </mxCell>
        <mxCell id="K3Xupo0fyRdiqklqDOSj-38" value="n" style="edgeLabel;resizable=0;html=1;align=right;verticalAlign=bottom;" parent="K3Xupo0fyRdiqklqDOSj-35" connectable="0" vertex="1">
          <mxGeometry x="1" relative="1" as="geometry" />
        </mxCell>
        <mxCell id="K3Xupo0fyRdiqklqDOSj-39" value="" style="endArrow=classic;html=1;rounded=0;exitX=0.5;exitY=1;exitDx=0;exitDy=0;entryX=1;entryY=0.5;entryDx=0;entryDy=0;" parent="1" source="K3Xupo0fyRdiqklqDOSj-6" target="K3Xupo0fyRdiqklqDOSj-8" edge="1">
          <mxGeometry relative="1" as="geometry">
            <mxPoint x="648" y="485" as="sourcePoint" />
            <mxPoint x="580" y="330" as="targetPoint" />
            <Array as="points">
              <mxPoint x="638" y="695" />
            </Array>
          </mxGeometry>
        </mxCell>
        <mxCell id="K3Xupo0fyRdiqklqDOSj-40" value="hat" style="edgeLabel;resizable=0;html=1;align=center;verticalAlign=middle;" parent="K3Xupo0fyRdiqklqDOSj-39" connectable="0" vertex="1">
          <mxGeometry relative="1" as="geometry" />
        </mxCell>
        <mxCell id="K3Xupo0fyRdiqklqDOSj-41" value="1" style="edgeLabel;resizable=0;html=1;align=left;verticalAlign=bottom;" parent="K3Xupo0fyRdiqklqDOSj-39" connectable="0" vertex="1">
          <mxGeometry x="-1" relative="1" as="geometry" />
        </mxCell>
        <mxCell id="K3Xupo0fyRdiqklqDOSj-42" value="n" style="edgeLabel;resizable=0;html=1;align=right;verticalAlign=bottom;" parent="K3Xupo0fyRdiqklqDOSj-39" connectable="0" vertex="1">
          <mxGeometry x="1" relative="1" as="geometry" />
        </mxCell>
        <mxCell id="K3Xupo0fyRdiqklqDOSj-43" value="" style="endArrow=classic;html=1;rounded=0;exitX=0.5;exitY=1;exitDx=0;exitDy=0;entryX=-0.014;entryY=0.445;entryDx=0;entryDy=0;entryPerimeter=0;" parent="1" source="K3Xupo0fyRdiqklqDOSj-4" target="K3Xupo0fyRdiqklqDOSj-9" edge="1">
          <mxGeometry relative="1" as="geometry">
            <mxPoint x="658" y="495" as="sourcePoint" />
            <mxPoint x="590" y="340" as="targetPoint" />
            <Array as="points">
              <mxPoint x="316" y="701" />
            </Array>
          </mxGeometry>
        </mxCell>
        <mxCell id="K3Xupo0fyRdiqklqDOSj-44" value="hat" style="edgeLabel;resizable=0;html=1;align=center;verticalAlign=middle;" parent="K3Xupo0fyRdiqklqDOSj-43" connectable="0" vertex="1">
          <mxGeometry relative="1" as="geometry" />
        </mxCell>
        <mxCell id="K3Xupo0fyRdiqklqDOSj-45" value="1" style="edgeLabel;resizable=0;html=1;align=left;verticalAlign=bottom;" parent="K3Xupo0fyRdiqklqDOSj-43" connectable="0" vertex="1">
          <mxGeometry x="-1" relative="1" as="geometry" />
        </mxCell>
        <mxCell id="K3Xupo0fyRdiqklqDOSj-46" value="n" style="edgeLabel;resizable=0;html=1;align=right;verticalAlign=bottom;" parent="K3Xupo0fyRdiqklqDOSj-43" connectable="0" vertex="1">
          <mxGeometry x="1" relative="1" as="geometry" />
        </mxCell>
      </root>
    </mxGraphModel>
  </diagram>
</mxfile>
